<svg xmlns="http://www.w3.org/2000/svg" width="12" height="16" viewBox="0 0 12 15"><path d="M6.477.191C3.219.191 0 2.223 0 5.504c0 2.086 1.258 3.27 2.02 3.27.312 0 .492-.817.492-1.047 0-.278-.75-.864-.75-2.012 0-2.383 1.941-4.07 4.457-4.07 2.16 0 3.761 1.144 3.761 3.253 0 1.575-.68 4.528-2.867 4.528-.793 0-1.465-.535-1.465-1.301 0-1.117.836-2.207.836-3.36 0-1.964-2.98-1.609-2.98.762 0 .5.066 1.051.305 1.504-.442 1.762-1.332 4.383-1.332 6.2 0 .558.082 1.109.14 1.671.106.114.055.102.223.047 1.598-2.047 1.539-2.449 2.265-5.125.387.696 1.399 1.067 2.196 1.067 3.375 0 4.886-3.067 4.886-5.832 0-2.946-2.726-4.868-5.71-4.868zm0 0" id="surface1"/></svg>