<svg width="10" height="20" fill="none" xmlns="http://www.w3.org/2000/svg">
  <path d="M.32 10.65h2.17v9.03c0 .08.03.16.1.23.05.06.13.09.22.09h3.68c.08 0 .16-.03.22-.1.06-.05.1-.14.1-.22v-8.99h2.5a.32.32 0 0 0 .3-.28L10 7.09a.33.33 0 0 0-.19-.34.32.32 0 0 0-.13-.02H6.81V4.64c0-.62.33-.94 1-.94h1.87c.09 0 .17-.04.23-.1.06-.06.09-.14.09-.23V.33A.32.32 0 0 0 9.9.1a.32.32 0 0 0-.22-.1H6.97c-.45 0-2 .09-3.24 1.24A3.46 3.46 0 0 0 2.6 4.29v2.44H.32a.32.32 0 0 0-.23.1.32.32 0 0 0-.09.22v3.28c0 .08.03.17.1.23.05.06.13.1.22.1Z" fill="#000"/>
</svg>
