<svg width="20" height="20" fill="none" xmlns="http://www.w3.org/2000/svg">
  <path d="M10 0C7.28 0 6.94.01 5.87.06a7.31 7.31 0 0 0-2.42.47 4.9 4.9 0 0 0-1.76 1.15c-.52.5-.91 1.1-1.17 1.77a7.31 7.31 0 0 0-.46 2.42C.01 6.95 0 7.29 0 10c0 2.72.01 3.06.06 4.13.05 1.06.22 1.78.47 2.42a4.9 4.9 0 0 0 1.15 1.77c.55.55 1.11.9 1.77 1.16.64.24 1.36.4 2.43.46 1.06.05 1.4.06 4.12.06s3.06-.02 4.13-.06a7.48 7.48 0 0 0 2.42-.46 4.9 4.9 0 0 0 1.77-1.16c.51-.5.9-1.1 1.16-1.77.25-.64.4-1.37.46-2.43.05-1.06.06-1.4.06-4.13 0-2.72-.01-3.05-.06-4.1a7.49 7.49 0 0 0-.46-2.44 4.9 4.9 0 0 0-1.16-1.77c-.5-.51-1.1-.9-1.77-1.16-.78-.29-1.6-.44-2.43-.46C13.06 0 12.72 0 10 0Zm0 1.8c2.67 0 2.99.01 4.04.06.98.05 1.5.2 1.86.35.47.18.8.39 1.15.75.35.34.56.67.75 1.14.13.35.3.88.34 1.86.05 1.05.06 1.37.06 4.04s-.01 2.99-.06 4.04a5.69 5.69 0 0 1-.35 1.86 3.25 3.25 0 0 1-1.9 1.9c-.35.13-.89.3-1.87.34-1.06.05-1.37.06-4.04.06-2.68 0-3-.01-4.06-.06a5.74 5.74 0 0 1-1.86-.35 3.14 3.14 0 0 1-1.15-.75 3 3 0 0 1-.75-1.16 5.6 5.6 0 0 1-.35-1.86c-.04-1.04-.05-1.38-.05-4.03 0-2.67.01-3 .05-4.05.05-.98.21-1.52.35-1.87.16-.43.41-.83.75-1.15.32-.34.72-.6 1.15-.75.35-.13.88-.3 1.85-.34 1.06-.04 1.38-.06 4.05-.06l.04.03Zm0 3.06a5.13 5.13 0 1 0 0 10.26 5.13 5.13 0 0 0 0-10.25Zm0 8.47a3.33 3.33 0 1 1 0-6.66 3.33 3.33 0 0 1 0 6.66Zm6.54-8.67a1.2 1.2 0 1 1-2.4 0 1.2 1.2 0 0 1 2.4 0Z" fill="#000"/>
</svg>
