<svg width="23" height="20" fill="none" xmlns="http://www.w3.org/2000/svg">
  <path d="M22.48 2.3a8.4 8.4 0 0 1-1.11.44c.45-.54.79-1.18 1-1.87a.42.42 0 0 0 0-.24.4.4 0 0 0-.13-.19.35.35 0 0 0-.42-.03c-.8.5-1.67.87-2.58 1.09a4.7 4.7 0 0 0-5.5-1.03c-.63.3-1.2.76-1.67 1.32a5.35 5.35 0 0 0-1.19 4.13 12.1 12.1 0 0 1-4.8-1.51 12.83 12.83 0 0 1-3.87-3.38.37.37 0 0 0-.14-.11.35.35 0 0 0-.35.03.38.38 0 0 0-.12.13 5.5 5.5 0 0 0 .5 6.04 4.06 4.06 0 0 1-.65-.31.35.35 0 0 0-.37 0 .38.38 0 0 0-.13.14.41.41 0 0 0-.05.2v.06c0 .91.22 1.8.64 2.6a5.13 5.13 0 0 0 1.77 1.91 4.06 4.06 0 0 1-.37-.06.35.35 0 0 0-.2.02.37.37 0 0 0-.15.1.42.42 0 0 0-.08.38c.27.88.74 1.66 1.37 2.28.64.61 1.41 1.04 2.25 1.24a8.36 8.36 0 0 1-5.72 1.36.35.35 0 0 0-.23.05.39.39 0 0 0-.16.2.42.42 0 0 0 0 .26.4.4 0 0 0 .15.2A12.75 12.75 0 0 0 7.37 20c5.03 0 8.17-2.52 9.93-4.63a15.2 15.2 0 0 0 3.43-10 9.97 9.97 0 0 0 2.2-2.48.41.41 0 0 0-.02-.48.37.37 0 0 0-.2-.13.35.35 0 0 0-.23.03Z" fill="#000"/>
</svg>
