<svg width="10" height="7" viewBox="0 0 10 7" fill="none" xmlns="http://www.w3.org/2000/svg">
<path d="M9.778 1.16999C10.006 0.941987 10.006 0.570987 9.778 0.341987C9.66813 0.232313 9.51824 0.170715 9.363 0.170715C9.20776 0.170715 9.05887 0.232313 8.949 0.341987L3.775 5.51599L1.051 2.79199C0.996567 2.73755 0.931946 2.69438 0.860826 2.66492C0.789706 2.63546 0.713479 2.6203 0.636499 2.6203C0.55952 2.6203 0.483294 2.63546 0.412174 2.66492C0.341054 2.69438 0.276433 2.73755 0.222 2.79199C0.167567 2.84642 0.124388 2.91104 0.0949292 2.98216C0.0654703 3.05328 0.0503082 3.12951 0.0503082 3.20649C0.0503082 3.28347 0.0654703 3.35969 0.0949292 3.43081C0.124388 3.50193 0.167567 3.56655 0.222 3.62099L3.36 6.75899C3.41427 6.81353 3.47878 6.85681 3.54983 6.88635C3.62087 6.91588 3.69706 6.93109 3.774 6.93109C3.85094 6.93109 3.92712 6.91588 3.99817 6.88635C4.06922 6.85681 4.13373 6.81353 4.188 6.75899L9.778 1.16999Z" fill="#FE3E57"/>
</svg>