<?xml version="1.0" encoding="UTF-8"?>
<svg xmlns="http://www.w3.org/2000/svg" xmlns:xlink="http://www.w3.org/1999/xlink" width="17px" height="17px" viewBox="0 0 17 17" version="1.1">
<g id="surface1">
<path style=" stroke:none;fill-rule:nonzero;fill:rgb(0%,0%,0%);fill-opacity:1;" d="M 17.203125 8.792969 C 17.203125 13.550781 13.789062 16.933594 8.742188 16.933594 C 3.90625 16.933594 0 13.210938 0 8.601562 C 0 3.992188 3.90625 0.269531 8.742188 0.269531 C 11.09375 0.269531 13.078125 1.089844 14.605469 2.449219 L 12.226562 4.628906 C 9.109375 1.765625 3.324219 3.917969 3.324219 8.601562 C 3.324219 11.507812 5.757812 13.863281 8.742188 13.863281 C 12.203125 13.863281 13.503906 11.5 13.703125 10.269531 L 8.742188 10.269531 L 8.742188 7.402344 L 17.0625 7.402344 C 17.148438 7.832031 17.203125 8.242188 17.203125 8.792969 Z M 17.203125 8.792969 "/>
</g>
</svg>
