<?xml version="1.0" encoding="UTF-8"?>
<svg xmlns="http://www.w3.org/2000/svg" xmlns:xlink="http://www.w3.org/1999/xlink" width="12px" height="16px" viewBox="0 0 12 15" version="1.1">
<g id="surface1">
<path style=" stroke:none;fill-rule:nonzero;fill:rgb(0%,0%,0%);fill-opacity:1;" d="M 6.476562 0.191406 C 3.21875 0.191406 0 2.222656 0 5.503906 C 0 7.589844 1.257812 8.773438 2.019531 8.773438 C 2.332031 8.773438 2.511719 7.957031 2.511719 7.726562 C 2.511719 7.449219 1.761719 6.863281 1.761719 5.714844 C 1.761719 3.332031 3.703125 1.644531 6.21875 1.644531 C 8.378906 1.644531 9.980469 2.789062 9.980469 4.898438 C 9.980469 6.472656 9.300781 9.425781 7.113281 9.425781 C 6.320312 9.425781 5.648438 8.890625 5.648438 8.125 C 5.648438 7.007812 6.484375 5.917969 6.484375 4.765625 C 6.484375 2.800781 3.503906 3.15625 3.503906 5.527344 C 3.503906 6.027344 3.570312 6.578125 3.808594 7.03125 C 3.367188 8.792969 2.476562 11.414062 2.476562 13.230469 C 2.476562 13.789062 2.558594 14.339844 2.617188 14.902344 C 2.722656 15.015625 2.671875 15.003906 2.839844 14.949219 C 4.4375 12.902344 4.378906 12.5 5.105469 9.824219 C 5.492188 10.519531 6.503906 10.890625 7.300781 10.890625 C 10.675781 10.890625 12.1875 7.824219 12.1875 5.058594 C 12.1875 2.113281 9.460938 0.191406 6.476562 0.191406 Z M 6.476562 0.191406 "/>
</g>
</svg>
